<?xml version="1.0" standalone="no"?>
<svg xmlns="http://www.w3.org/2000/svg" width="300" height="300"><defs><clipPath id="clip-path-dot-color"><rect x="6" y="62" width="7" height="7" transform="rotate(0,9.5,65.5)"/><rect x="6" y="69" width="7" height="7" transform="rotate(0,9.5,72.5)"/><rect x="6" y="90" width="7" height="7" transform="rotate(0,9.5,93.5)"/><rect x="6" y="97" width="7" height="7" transform="rotate(0,9.5,100.5)"/><rect x="6" y="118" width="7" height="7" transform="rotate(0,9.5,121.5)"/><rect x="6" y="125" width="7" height="7" transform="rotate(0,9.5,128.5)"/><rect x="6" y="153" width="7" height="7" transform="rotate(0,9.5,156.5)"/><rect x="6" y="160" width="7" height="7" transform="rotate(0,9.5,163.5)"/><rect x="6" y="202" width="7" height="7" transform="rotate(0,9.5,205.5)"/><rect x="6" y="209" width="7" height="7" transform="rotate(0,9.5,212.5)"/><rect x="6" y="216" width="7" height="7" transform="rotate(0,9.5,219.5)"/><rect x="6" y="223" width="7" height="7" transform="rotate(0,9.5,226.5)"/><rect x="6" y="230" width="7" height="7" transform="rotate(0,9.5,233.5)"/><rect x="13" y="83" width="7" height="7" transform="rotate(0,16.5,86.5)"/><rect x="13" y="90" width="7" height="7" transform="rotate(0,16.5,93.5)"/><rect x="13" y="97" width="7" height="7" transform="rotate(0,16.5,100.5)"/><rect x="13" y="111" width="7" height="7" transform="rotate(0,16.5,114.5)"/><rect x="13" y="132" width="7" height="7" transform="rotate(0,16.5,135.5)"/><rect x="13" y="139" width="7" height="7" transform="rotate(0,16.5,142.5)"/><rect x="13" y="153" width="7" height="7" transform="rotate(0,16.5,156.5)"/><rect x="13" y="174" width="7" height="7" transform="rotate(0,16.5,177.5)"/><rect x="13" y="195" width="7" height="7" transform="rotate(0,16.5,198.5)"/><rect x="13" y="209" width="7" height="7" transform="rotate(0,16.5,212.5)"/><rect x="20" y="69" width="7" height="7" transform="rotate(0,23.5,72.5)"/><rect x="20" y="76" width="7" height="7" transform="rotate(0,23.5,79.5)"/><rect x="20" y="90" width="7" height="7" transform="rotate(0,23.5,93.5)"/><rect x="20" y="111" width="7" height="7" transform="rotate(0,23.5,114.5)"/><rect x="20" y="125" width="7" height="7" transform="rotate(0,23.5,128.5)"/><rect x="20" y="132" width="7" height="7" transform="rotate(0,23.5,135.5)"/><rect x="20" y="153" width="7" height="7" transform="rotate(0,23.5,156.5)"/><rect x="20" y="174" width="7" height="7" transform="rotate(0,23.5,177.5)"/><rect x="20" y="188" width="7" height="7" transform="rotate(0,23.5,191.5)"/><rect x="20" y="195" width="7" height="7" transform="rotate(0,23.5,198.5)"/><rect x="20" y="202" width="7" height="7" transform="rotate(0,23.5,205.5)"/><rect x="20" y="209" width="7" height="7" transform="rotate(0,23.5,212.5)"/><rect x="20" y="216" width="7" height="7" transform="rotate(0,23.5,219.5)"/><rect x="27" y="90" width="7" height="7" transform="rotate(0,30.5,93.5)"/><rect x="27" y="97" width="7" height="7" transform="rotate(0,30.5,100.5)"/><rect x="27" y="104" width="7" height="7" transform="rotate(0,30.5,107.5)"/><rect x="27" y="125" width="7" height="7" transform="rotate(0,30.5,128.5)"/><rect x="27" y="139" width="7" height="7" transform="rotate(0,30.5,142.5)"/><rect x="27" y="153" width="7" height="7" transform="rotate(0,30.5,156.5)"/><rect x="27" y="174" width="7" height="7" transform="rotate(0,30.5,177.5)"/><rect x="27" y="195" width="7" height="7" transform="rotate(0,30.5,198.5)"/><rect x="34" y="62" width="7" height="7" transform="rotate(0,37.5,65.5)"/><rect x="34" y="76" width="7" height="7" transform="rotate(0,37.5,79.5)"/><rect x="34" y="111" width="7" height="7" transform="rotate(0,37.5,114.5)"/><rect x="34" y="118" width="7" height="7" transform="rotate(0,37.5,121.5)"/><rect x="34" y="132" width="7" height="7" transform="rotate(0,37.5,135.5)"/><rect x="34" y="160" width="7" height="7" transform="rotate(0,37.5,163.5)"/><rect x="34" y="174" width="7" height="7" transform="rotate(0,37.5,177.5)"/><rect x="34" y="188" width="7" height="7" transform="rotate(0,37.5,191.5)"/><rect x="34" y="202" width="7" height="7" transform="rotate(0,37.5,205.5)"/><rect x="34" y="216" width="7" height="7" transform="rotate(0,37.5,219.5)"/><rect x="34" y="223" width="7" height="7" transform="rotate(0,37.5,226.5)"/><rect x="34" y="230" width="7" height="7" transform="rotate(0,37.5,233.5)"/><rect x="41" y="62" width="7" height="7" transform="rotate(0,44.5,65.5)"/><rect x="41" y="90" width="7" height="7" transform="rotate(0,44.5,93.5)"/><rect x="41" y="132" width="7" height="7" transform="rotate(0,44.5,135.5)"/><rect x="41" y="139" width="7" height="7" transform="rotate(0,44.5,142.5)"/><rect x="41" y="153" width="7" height="7" transform="rotate(0,44.5,156.5)"/><rect x="41" y="160" width="7" height="7" transform="rotate(0,44.5,163.5)"/><rect x="41" y="174" width="7" height="7" transform="rotate(0,44.5,177.5)"/><rect x="41" y="181" width="7" height="7" transform="rotate(0,44.5,184.5)"/><rect x="41" y="188" width="7" height="7" transform="rotate(0,44.5,191.5)"/><rect x="41" y="195" width="7" height="7" transform="rotate(0,44.5,198.5)"/><rect x="41" y="209" width="7" height="7" transform="rotate(0,44.5,212.5)"/><rect x="41" y="216" width="7" height="7" transform="rotate(0,44.5,219.5)"/><rect x="41" y="230" width="7" height="7" transform="rotate(0,44.5,233.5)"/><rect x="48" y="62" width="7" height="7" transform="rotate(0,51.5,65.5)"/><rect x="48" y="76" width="7" height="7" transform="rotate(0,51.5,79.5)"/><rect x="48" y="90" width="7" height="7" transform="rotate(0,51.5,93.5)"/><rect x="48" y="104" width="7" height="7" transform="rotate(0,51.5,107.5)"/><rect x="48" y="118" width="7" height="7" transform="rotate(0,51.5,121.5)"/><rect x="48" y="132" width="7" height="7" transform="rotate(0,51.5,135.5)"/><rect x="48" y="146" width="7" height="7" transform="rotate(0,51.5,149.5)"/><rect x="48" y="160" width="7" height="7" transform="rotate(0,51.5,163.5)"/><rect x="48" y="174" width="7" height="7" transform="rotate(0,51.5,177.5)"/><rect x="48" y="188" width="7" height="7" transform="rotate(0,51.5,191.5)"/><rect x="48" y="202" width="7" height="7" transform="rotate(0,51.5,205.5)"/><rect x="48" y="216" width="7" height="7" transform="rotate(0,51.5,219.5)"/><rect x="48" y="230" width="7" height="7" transform="rotate(0,51.5,233.5)"/><rect x="55" y="69" width="7" height="7" transform="rotate(0,58.5,72.5)"/><rect x="55" y="76" width="7" height="7" transform="rotate(0,58.5,79.5)"/><rect x="55" y="83" width="7" height="7" transform="rotate(0,58.5,86.5)"/><rect x="55" y="104" width="7" height="7" transform="rotate(0,58.5,107.5)"/><rect x="55" y="111" width="7" height="7" transform="rotate(0,58.5,114.5)"/><rect x="55" y="118" width="7" height="7" transform="rotate(0,58.5,121.5)"/><rect x="55" y="132" width="7" height="7" transform="rotate(0,58.5,135.5)"/><rect x="55" y="139" width="7" height="7" transform="rotate(0,58.5,142.5)"/><rect x="55" y="160" width="7" height="7" transform="rotate(0,58.5,163.5)"/><rect x="55" y="167" width="7" height="7" transform="rotate(0,58.5,170.5)"/><rect x="55" y="195" width="7" height="7" transform="rotate(0,58.5,198.5)"/><rect x="55" y="223" width="7" height="7" transform="rotate(0,58.5,226.5)"/><rect x="55" y="230" width="7" height="7" transform="rotate(0,58.5,233.5)"/><rect x="62" y="13" width="7" height="7" transform="rotate(0,65.5,16.5)"/><rect x="62" y="20" width="7" height="7" transform="rotate(0,65.5,23.5)"/><rect x="62" y="27" width="7" height="7" transform="rotate(0,65.5,30.5)"/><rect x="62" y="34" width="7" height="7" transform="rotate(0,65.5,37.5)"/><rect x="62" y="41" width="7" height="7" transform="rotate(0,65.5,44.5)"/><rect x="62" y="48" width="7" height="7" transform="rotate(0,65.5,51.5)"/><rect x="62" y="55" width="7" height="7" transform="rotate(0,65.5,58.5)"/><rect x="62" y="90" width="7" height="7" transform="rotate(0,65.5,93.5)"/><rect x="62" y="97" width="7" height="7" transform="rotate(0,65.5,100.5)"/><rect x="62" y="111" width="7" height="7" transform="rotate(0,65.5,114.5)"/><rect x="62" y="125" width="7" height="7" transform="rotate(0,65.5,128.5)"/><rect x="62" y="146" width="7" height="7" transform="rotate(0,65.5,149.5)"/><rect x="62" y="167" width="7" height="7" transform="rotate(0,65.5,170.5)"/><rect x="62" y="174" width="7" height="7" transform="rotate(0,65.5,177.5)"/><rect x="62" y="181" width="7" height="7" transform="rotate(0,65.5,184.5)"/><rect x="62" y="188" width="7" height="7" transform="rotate(0,65.5,191.5)"/><rect x="62" y="209" width="7" height="7" transform="rotate(0,65.5,212.5)"/><rect x="62" y="223" width="7" height="7" transform="rotate(0,65.5,226.5)"/><rect x="62" y="251" width="7" height="7" transform="rotate(0,65.5,254.5)"/><rect x="62" y="258" width="7" height="7" transform="rotate(0,65.5,261.5)"/><rect x="62" y="286" width="7" height="7" transform="rotate(0,65.5,289.5)"/><rect x="69" y="6" width="7" height="7" transform="rotate(0,72.5,9.5)"/><rect x="69" y="55" width="7" height="7" transform="rotate(0,72.5,58.5)"/><rect x="69" y="62" width="7" height="7" transform="rotate(0,72.5,65.5)"/><rect x="69" y="69" width="7" height="7" transform="rotate(0,72.5,72.5)"/><rect x="69" y="76" width="7" height="7" transform="rotate(0,72.5,79.5)"/><rect x="69" y="83" width="7" height="7" transform="rotate(0,72.5,86.5)"/><rect x="69" y="90" width="7" height="7" transform="rotate(0,72.5,93.5)"/><rect x="69" y="104" width="7" height="7" transform="rotate(0,72.5,107.5)"/><rect x="69" y="118" width="7" height="7" transform="rotate(0,72.5,121.5)"/><rect x="69" y="125" width="7" height="7" transform="rotate(0,72.5,128.5)"/><rect x="69" y="139" width="7" height="7" transform="rotate(0,72.5,142.5)"/><rect x="69" y="174" width="7" height="7" transform="rotate(0,72.5,177.5)"/><rect x="69" y="181" width="7" height="7" transform="rotate(0,72.5,184.5)"/><rect x="69" y="202" width="7" height="7" transform="rotate(0,72.5,205.5)"/><rect x="69" y="216" width="7" height="7" transform="rotate(0,72.5,219.5)"/><rect x="69" y="223" width="7" height="7" transform="rotate(0,72.5,226.5)"/><rect x="69" y="230" width="7" height="7" transform="rotate(0,72.5,233.5)"/><rect x="69" y="244" width="7" height="7" transform="rotate(0,72.5,247.5)"/><rect x="69" y="258" width="7" height="7" transform="rotate(0,72.5,261.5)"/><rect x="69" y="272" width="7" height="7" transform="rotate(0,72.5,275.5)"/><rect x="69" y="286" width="7" height="7" transform="rotate(0,72.5,289.5)"/><rect x="76" y="6" width="7" height="7" transform="rotate(0,79.5,9.5)"/><rect x="76" y="41" width="7" height="7" transform="rotate(0,79.5,44.5)"/><rect x="76" y="48" width="7" height="7" transform="rotate(0,79.5,51.5)"/><rect x="76" y="62" width="7" height="7" transform="rotate(0,79.5,65.5)"/><rect x="76" y="90" width="7" height="7" transform="rotate(0,79.5,93.5)"/><rect x="76" y="97" width="7" height="7" transform="rotate(0,79.5,100.5)"/><rect x="76" y="118" width="7" height="7" transform="rotate(0,79.5,121.5)"/><rect x="76" y="153" width="7" height="7" transform="rotate(0,79.5,156.5)"/><rect x="76" y="167" width="7" height="7" transform="rotate(0,79.5,170.5)"/><rect x="76" y="174" width="7" height="7" transform="rotate(0,79.5,177.5)"/><rect x="76" y="181" width="7" height="7" transform="rotate(0,79.5,184.5)"/><rect x="76" y="188" width="7" height="7" transform="rotate(0,79.5,191.5)"/><rect x="76" y="195" width="7" height="7" transform="rotate(0,79.5,198.5)"/><rect x="76" y="202" width="7" height="7" transform="rotate(0,79.5,205.5)"/><rect x="76" y="230" width="7" height="7" transform="rotate(0,79.5,233.5)"/><rect x="76" y="258" width="7" height="7" transform="rotate(0,79.5,261.5)"/><rect x="76" y="279" width="7" height="7" transform="rotate(0,79.5,282.5)"/><rect x="83" y="13" width="7" height="7" transform="rotate(0,86.5,16.5)"/><rect x="83" y="27" width="7" height="7" transform="rotate(0,86.5,30.5)"/><rect x="83" y="34" width="7" height="7" transform="rotate(0,86.5,37.5)"/><rect x="83" y="41" width="7" height="7" transform="rotate(0,86.5,44.5)"/><rect x="83" y="55" width="7" height="7" transform="rotate(0,86.5,58.5)"/><rect x="83" y="62" width="7" height="7" transform="rotate(0,86.5,65.5)"/><rect x="83" y="104" width="7" height="7" transform="rotate(0,86.5,107.5)"/><rect x="83" y="146" width="7" height="7" transform="rotate(0,86.5,149.5)"/><rect x="83" y="167" width="7" height="7" transform="rotate(0,86.5,170.5)"/><rect x="83" y="174" width="7" height="7" transform="rotate(0,86.5,177.5)"/><rect x="83" y="188" width="7" height="7" transform="rotate(0,86.5,191.5)"/><rect x="83" y="195" width="7" height="7" transform="rotate(0,86.5,198.5)"/><rect x="83" y="216" width="7" height="7" transform="rotate(0,86.5,219.5)"/><rect x="83" y="223" width="7" height="7" transform="rotate(0,86.5,226.5)"/><rect x="83" y="230" width="7" height="7" transform="rotate(0,86.5,233.5)"/><rect x="83" y="237" width="7" height="7" transform="rotate(0,86.5,240.5)"/><rect x="83" y="244" width="7" height="7" transform="rotate(0,86.5,247.5)"/><rect x="83" y="251" width="7" height="7" transform="rotate(0,86.5,254.5)"/><rect x="83" y="258" width="7" height="7" transform="rotate(0,86.5,261.5)"/><rect x="83" y="265" width="7" height="7" transform="rotate(0,86.5,268.5)"/><rect x="90" y="13" width="7" height="7" transform="rotate(0,93.5,16.5)"/><rect x="90" y="27" width="7" height="7" transform="rotate(0,93.5,30.5)"/><rect x="90" y="34" width="7" height="7" transform="rotate(0,93.5,37.5)"/><rect x="90" y="41" width="7" height="7" transform="rotate(0,93.5,44.5)"/><rect x="90" y="48" width="7" height="7" transform="rotate(0,93.5,51.5)"/><rect x="90" y="55" width="7" height="7" transform="rotate(0,93.5,58.5)"/><rect x="90" y="76" width="7" height="7" transform="rotate(0,93.5,79.5)"/><rect x="90" y="90" width="7" height="7" transform="rotate(0,93.5,93.5)"/><rect x="90" y="125" width="7" height="7" transform="rotate(0,93.5,128.5)"/><rect x="90" y="146" width="7" height="7" transform="rotate(0,93.5,149.5)"/><rect x="90" y="181" width="7" height="7" transform="rotate(0,93.5,184.5)"/><rect x="90" y="188" width="7" height="7" transform="rotate(0,93.5,191.5)"/><rect x="90" y="209" width="7" height="7" transform="rotate(0,93.5,212.5)"/><rect x="90" y="223" width="7" height="7" transform="rotate(0,93.5,226.5)"/><rect x="90" y="237" width="7" height="7" transform="rotate(0,93.5,240.5)"/><rect x="90" y="265" width="7" height="7" transform="rotate(0,93.5,268.5)"/><rect x="90" y="272" width="7" height="7" transform="rotate(0,93.5,275.5)"/><rect x="90" y="279" width="7" height="7" transform="rotate(0,93.5,282.5)"/><rect x="90" y="286" width="7" height="7" transform="rotate(0,93.5,289.5)"/><rect x="97" y="6" width="7" height="7" transform="rotate(0,100.5,9.5)"/><rect x="97" y="20" width="7" height="7" transform="rotate(0,100.5,23.5)"/><rect x="97" y="62" width="7" height="7" transform="rotate(0,100.5,65.5)"/><rect x="97" y="69" width="7" height="7" transform="rotate(0,100.5,72.5)"/><rect x="97" y="97" width="7" height="7" transform="rotate(0,100.5,100.5)"/><rect x="97" y="111" width="7" height="7" transform="rotate(0,100.5,114.5)"/><rect x="97" y="125" width="7" height="7" transform="rotate(0,100.5,128.5)"/><rect x="97" y="139" width="7" height="7" transform="rotate(0,100.5,142.5)"/><rect x="97" y="146" width="7" height="7" transform="rotate(0,100.5,149.5)"/><rect x="97" y="153" width="7" height="7" transform="rotate(0,100.5,156.5)"/><rect x="97" y="174" width="7" height="7" transform="rotate(0,100.5,177.5)"/><rect x="97" y="195" width="7" height="7" transform="rotate(0,100.5,198.5)"/><rect x="97" y="202" width="7" height="7" transform="rotate(0,100.5,205.5)"/><rect x="97" y="216" width="7" height="7" transform="rotate(0,100.5,219.5)"/><rect x="97" y="244" width="7" height="7" transform="rotate(0,100.5,247.5)"/><rect x="97" y="251" width="7" height="7" transform="rotate(0,100.5,254.5)"/><rect x="97" y="258" width="7" height="7" transform="rotate(0,100.5,261.5)"/><rect x="97" y="265" width="7" height="7" transform="rotate(0,100.5,268.5)"/><rect x="97" y="272" width="7" height="7" transform="rotate(0,100.5,275.5)"/><rect x="97" y="279" width="7" height="7" transform="rotate(0,100.5,282.5)"/><rect x="97" y="286" width="7" height="7" transform="rotate(0,100.5,289.5)"/><rect x="104" y="6" width="7" height="7" transform="rotate(0,107.5,9.5)"/><rect x="104" y="41" width="7" height="7" transform="rotate(0,107.5,44.5)"/><rect x="104" y="48" width="7" height="7" transform="rotate(0,107.5,51.5)"/><rect x="104" y="76" width="7" height="7" transform="rotate(0,107.5,79.5)"/><rect x="104" y="83" width="7" height="7" transform="rotate(0,107.5,86.5)"/><rect x="104" y="97" width="7" height="7" transform="rotate(0,107.5,100.5)"/><rect x="104" y="104" width="7" height="7" transform="rotate(0,107.5,107.5)"/><rect x="104" y="111" width="7" height="7" transform="rotate(0,107.5,114.5)"/><rect x="104" y="160" width="7" height="7" transform="rotate(0,107.5,163.5)"/><rect x="104" y="181" width="7" height="7" transform="rotate(0,107.5,184.5)"/><rect x="104" y="216" width="7" height="7" transform="rotate(0,107.5,219.5)"/><rect x="104" y="230" width="7" height="7" transform="rotate(0,107.5,233.5)"/><rect x="104" y="237" width="7" height="7" transform="rotate(0,107.5,240.5)"/><rect x="104" y="251" width="7" height="7" transform="rotate(0,107.5,254.5)"/><rect x="104" y="258" width="7" height="7" transform="rotate(0,107.5,261.5)"/><rect x="104" y="265" width="7" height="7" transform="rotate(0,107.5,268.5)"/><rect x="104" y="272" width="7" height="7" transform="rotate(0,107.5,275.5)"/><rect x="111" y="6" width="7" height="7" transform="rotate(0,114.5,9.5)"/><rect x="111" y="13" width="7" height="7" transform="rotate(0,114.5,16.5)"/><rect x="111" y="34" width="7" height="7" transform="rotate(0,114.5,37.5)"/><rect x="111" y="41" width="7" height="7" transform="rotate(0,114.5,44.5)"/><rect x="111" y="62" width="7" height="7" transform="rotate(0,114.5,65.5)"/><rect x="111" y="125" width="7" height="7" transform="rotate(0,114.5,128.5)"/><rect x="111" y="139" width="7" height="7" transform="rotate(0,114.5,142.5)"/><rect x="111" y="160" width="7" height="7" transform="rotate(0,114.5,163.5)"/><rect x="111" y="174" width="7" height="7" transform="rotate(0,114.5,177.5)"/><rect x="111" y="188" width="7" height="7" transform="rotate(0,114.5,191.5)"/><rect x="111" y="202" width="7" height="7" transform="rotate(0,114.5,205.5)"/><rect x="111" y="230" width="7" height="7" transform="rotate(0,114.5,233.5)"/><rect x="111" y="244" width="7" height="7" transform="rotate(0,114.5,247.5)"/><rect x="111" y="265" width="7" height="7" transform="rotate(0,114.5,268.5)"/><rect x="111" y="286" width="7" height="7" transform="rotate(0,114.5,289.5)"/><rect x="118" y="20" width="7" height="7" transform="rotate(0,121.5,23.5)"/><rect x="118" y="27" width="7" height="7" transform="rotate(0,121.5,30.5)"/><rect x="118" y="34" width="7" height="7" transform="rotate(0,121.5,37.5)"/><rect x="118" y="41" width="7" height="7" transform="rotate(0,121.5,44.5)"/><rect x="118" y="48" width="7" height="7" transform="rotate(0,121.5,51.5)"/><rect x="118" y="55" width="7" height="7" transform="rotate(0,121.5,58.5)"/><rect x="118" y="62" width="7" height="7" transform="rotate(0,121.5,65.5)"/><rect x="118" y="69" width="7" height="7" transform="rotate(0,121.5,72.5)"/><rect x="118" y="76" width="7" height="7" transform="rotate(0,121.5,79.5)"/><rect x="118" y="83" width="7" height="7" transform="rotate(0,121.5,86.5)"/><rect x="118" y="97" width="7" height="7" transform="rotate(0,121.5,100.5)"/><rect x="118" y="111" width="7" height="7" transform="rotate(0,121.5,114.5)"/><rect x="118" y="139" width="7" height="7" transform="rotate(0,121.5,142.5)"/><rect x="118" y="153" width="7" height="7" transform="rotate(0,121.5,156.5)"/><rect x="118" y="181" width="7" height="7" transform="rotate(0,121.5,184.5)"/><rect x="118" y="209" width="7" height="7" transform="rotate(0,121.5,212.5)"/><rect x="118" y="230" width="7" height="7" transform="rotate(0,121.5,233.5)"/><rect x="118" y="237" width="7" height="7" transform="rotate(0,121.5,240.5)"/><rect x="118" y="251" width="7" height="7" transform="rotate(0,121.5,254.5)"/><rect x="118" y="272" width="7" height="7" transform="rotate(0,121.5,275.5)"/><rect x="118" y="286" width="7" height="7" transform="rotate(0,121.5,289.5)"/><rect x="125" y="55" width="7" height="7" transform="rotate(0,128.5,58.5)"/><rect x="125" y="62" width="7" height="7" transform="rotate(0,128.5,65.5)"/><rect x="125" y="69" width="7" height="7" transform="rotate(0,128.5,72.5)"/><rect x="125" y="83" width="7" height="7" transform="rotate(0,128.5,86.5)"/><rect x="125" y="97" width="7" height="7" transform="rotate(0,128.5,100.5)"/><rect x="125" y="104" width="7" height="7" transform="rotate(0,128.5,107.5)"/><rect x="125" y="118" width="7" height="7" transform="rotate(0,128.5,121.5)"/><rect x="125" y="125" width="7" height="7" transform="rotate(0,128.5,128.5)"/><rect x="125" y="139" width="7" height="7" transform="rotate(0,128.5,142.5)"/><rect x="125" y="167" width="7" height="7" transform="rotate(0,128.5,170.5)"/><rect x="125" y="174" width="7" height="7" transform="rotate(0,128.5,177.5)"/><rect x="125" y="181" width="7" height="7" transform="rotate(0,128.5,184.5)"/><rect x="125" y="188" width="7" height="7" transform="rotate(0,128.5,191.5)"/><rect x="125" y="202" width="7" height="7" transform="rotate(0,128.5,205.5)"/><rect x="125" y="216" width="7" height="7" transform="rotate(0,128.5,219.5)"/><rect x="125" y="223" width="7" height="7" transform="rotate(0,128.5,226.5)"/><rect x="125" y="244" width="7" height="7" transform="rotate(0,128.5,247.5)"/><rect x="125" y="251" width="7" height="7" transform="rotate(0,128.5,254.5)"/><rect x="125" y="258" width="7" height="7" transform="rotate(0,128.5,261.5)"/><rect x="125" y="265" width="7" height="7" transform="rotate(0,128.5,268.5)"/><rect x="125" y="272" width="7" height="7" transform="rotate(0,128.5,275.5)"/><rect x="125" y="279" width="7" height="7" transform="rotate(0,128.5,282.5)"/><rect x="125" y="286" width="7" height="7" transform="rotate(0,128.5,289.5)"/><rect x="132" y="27" width="7" height="7" transform="rotate(0,135.5,30.5)"/><rect x="132" y="34" width="7" height="7" transform="rotate(0,135.5,37.5)"/><rect x="132" y="41" width="7" height="7" transform="rotate(0,135.5,44.5)"/><rect x="132" y="48" width="7" height="7" transform="rotate(0,135.5,51.5)"/><rect x="132" y="69" width="7" height="7" transform="rotate(0,135.5,72.5)"/><rect x="132" y="76" width="7" height="7" transform="rotate(0,135.5,79.5)"/><rect x="132" y="97" width="7" height="7" transform="rotate(0,135.5,100.5)"/><rect x="132" y="118" width="7" height="7" transform="rotate(0,135.5,121.5)"/><rect x="132" y="132" width="7" height="7" transform="rotate(0,135.5,135.5)"/><rect x="132" y="160" width="7" height="7" transform="rotate(0,135.5,163.5)"/><rect x="132" y="174" width="7" height="7" transform="rotate(0,135.5,177.5)"/><rect x="132" y="181" width="7" height="7" transform="rotate(0,135.5,184.5)"/><rect x="132" y="188" width="7" height="7" transform="rotate(0,135.5,191.5)"/><rect x="132" y="195" width="7" height="7" transform="rotate(0,135.5,198.5)"/><rect x="132" y="202" width="7" height="7" transform="rotate(0,135.5,205.5)"/><rect x="132" y="216" width="7" height="7" transform="rotate(0,135.5,219.5)"/><rect x="132" y="244" width="7" height="7" transform="rotate(0,135.5,247.5)"/><rect x="132" y="258" width="7" height="7" transform="rotate(0,135.5,261.5)"/><rect x="132" y="265" width="7" height="7" transform="rotate(0,135.5,268.5)"/><rect x="139" y="6" width="7" height="7" transform="rotate(0,142.5,9.5)"/><rect x="139" y="27" width="7" height="7" transform="rotate(0,142.5,30.5)"/><rect x="139" y="34" width="7" height="7" transform="rotate(0,142.5,37.5)"/><rect x="139" y="41" width="7" height="7" transform="rotate(0,142.5,44.5)"/><rect x="139" y="62" width="7" height="7" transform="rotate(0,142.5,65.5)"/><rect x="139" y="97" width="7" height="7" transform="rotate(0,142.5,100.5)"/><rect x="139" y="111" width="7" height="7" transform="rotate(0,142.5,114.5)"/><rect x="139" y="146" width="7" height="7" transform="rotate(0,142.5,149.5)"/><rect x="139" y="160" width="7" height="7" transform="rotate(0,142.5,163.5)"/><rect x="139" y="181" width="7" height="7" transform="rotate(0,142.5,184.5)"/><rect x="139" y="195" width="7" height="7" transform="rotate(0,142.5,198.5)"/><rect x="139" y="202" width="7" height="7" transform="rotate(0,142.5,205.5)"/><rect x="139" y="223" width="7" height="7" transform="rotate(0,142.5,226.5)"/><rect x="139" y="237" width="7" height="7" transform="rotate(0,142.5,240.5)"/><rect x="139" y="244" width="7" height="7" transform="rotate(0,142.5,247.5)"/><rect x="139" y="258" width="7" height="7" transform="rotate(0,142.5,261.5)"/><rect x="139" y="279" width="7" height="7" transform="rotate(0,142.5,282.5)"/><rect x="139" y="286" width="7" height="7" transform="rotate(0,142.5,289.5)"/><rect x="146" y="6" width="7" height="7" transform="rotate(0,149.5,9.5)"/><rect x="146" y="13" width="7" height="7" transform="rotate(0,149.5,16.5)"/><rect x="146" y="20" width="7" height="7" transform="rotate(0,149.5,23.5)"/><rect x="146" y="27" width="7" height="7" transform="rotate(0,149.5,30.5)"/><rect x="146" y="41" width="7" height="7" transform="rotate(0,149.5,44.5)"/><rect x="146" y="48" width="7" height="7" transform="rotate(0,149.5,51.5)"/><rect x="146" y="55" width="7" height="7" transform="rotate(0,149.5,58.5)"/><rect x="146" y="69" width="7" height="7" transform="rotate(0,149.5,72.5)"/><rect x="146" y="83" width="7" height="7" transform="rotate(0,149.5,86.5)"/><rect x="146" y="97" width="7" height="7" transform="rotate(0,149.5,100.5)"/><rect x="146" y="111" width="7" height="7" transform="rotate(0,149.5,114.5)"/><rect x="146" y="139" width="7" height="7" transform="rotate(0,149.5,142.5)"/><rect x="146" y="146" width="7" height="7" transform="rotate(0,149.5,149.5)"/><rect x="146" y="174" width="7" height="7" transform="rotate(0,149.5,177.5)"/><rect x="146" y="188" width="7" height="7" transform="rotate(0,149.5,191.5)"/><rect x="146" y="195" width="7" height="7" transform="rotate(0,149.5,198.5)"/><rect x="146" y="216" width="7" height="7" transform="rotate(0,149.5,219.5)"/><rect x="146" y="251" width="7" height="7" transform="rotate(0,149.5,254.5)"/><rect x="146" y="272" width="7" height="7" transform="rotate(0,149.5,275.5)"/><rect x="146" y="279" width="7" height="7" transform="rotate(0,149.5,282.5)"/><rect x="153" y="27" width="7" height="7" transform="rotate(0,156.5,30.5)"/><rect x="153" y="34" width="7" height="7" transform="rotate(0,156.5,37.5)"/><rect x="153" y="41" width="7" height="7" transform="rotate(0,156.5,44.5)"/><rect x="153" y="55" width="7" height="7" transform="rotate(0,156.5,58.5)"/><rect x="153" y="62" width="7" height="7" transform="rotate(0,156.5,65.5)"/><rect x="153" y="83" width="7" height="7" transform="rotate(0,156.5,86.5)"/><rect x="153" y="97" width="7" height="7" transform="rotate(0,156.5,100.5)"/><rect x="153" y="104" width="7" height="7" transform="rotate(0,156.5,107.5)"/><rect x="153" y="118" width="7" height="7" transform="rotate(0,156.5,121.5)"/><rect x="153" y="125" width="7" height="7" transform="rotate(0,156.5,128.5)"/><rect x="153" y="132" width="7" height="7" transform="rotate(0,156.5,135.5)"/><rect x="153" y="153" width="7" height="7" transform="rotate(0,156.5,156.5)"/><rect x="153" y="160" width="7" height="7" transform="rotate(0,156.5,163.5)"/><rect x="153" y="167" width="7" height="7" transform="rotate(0,156.5,170.5)"/><rect x="153" y="181" width="7" height="7" transform="rotate(0,156.5,184.5)"/><rect x="153" y="202" width="7" height="7" transform="rotate(0,156.5,205.5)"/><rect x="153" y="223" width="7" height="7" transform="rotate(0,156.5,226.5)"/><rect x="153" y="230" width="7" height="7" transform="rotate(0,156.5,233.5)"/><rect x="153" y="237" width="7" height="7" transform="rotate(0,156.5,240.5)"/><rect x="153" y="244" width="7" height="7" transform="rotate(0,156.5,247.5)"/><rect x="153" y="258" width="7" height="7" transform="rotate(0,156.5,261.5)"/><rect x="153" y="272" width="7" height="7" transform="rotate(0,156.5,275.5)"/><rect x="153" y="279" width="7" height="7" transform="rotate(0,156.5,282.5)"/><rect x="153" y="286" width="7" height="7" transform="rotate(0,156.5,289.5)"/><rect x="160" y="6" width="7" height="7" transform="rotate(0,163.5,9.5)"/><rect x="160" y="41" width="7" height="7" transform="rotate(0,163.5,44.5)"/><rect x="160" y="48" width="7" height="7" transform="rotate(0,163.5,51.5)"/><rect x="160" y="55" width="7" height="7" transform="rotate(0,163.5,58.5)"/><rect x="160" y="62" width="7" height="7" transform="rotate(0,163.5,65.5)"/><rect x="160" y="83" width="7" height="7" transform="rotate(0,163.5,86.5)"/><rect x="160" y="97" width="7" height="7" transform="rotate(0,163.5,100.5)"/><rect x="160" y="111" width="7" height="7" transform="rotate(0,163.5,114.5)"/><rect x="160" y="118" width="7" height="7" transform="rotate(0,163.5,121.5)"/><rect x="160" y="125" width="7" height="7" transform="rotate(0,163.5,128.5)"/><rect x="160" y="146" width="7" height="7" transform="rotate(0,163.5,149.5)"/><rect x="160" y="174" width="7" height="7" transform="rotate(0,163.5,177.5)"/><rect x="160" y="195" width="7" height="7" transform="rotate(0,163.5,198.5)"/><rect x="160" y="202" width="7" height="7" transform="rotate(0,163.5,205.5)"/><rect x="160" y="230" width="7" height="7" transform="rotate(0,163.5,233.5)"/><rect x="160" y="251" width="7" height="7" transform="rotate(0,163.5,254.5)"/><rect x="160" y="265" width="7" height="7" transform="rotate(0,163.5,268.5)"/><rect x="167" y="13" width="7" height="7" transform="rotate(0,170.5,16.5)"/><rect x="167" y="20" width="7" height="7" transform="rotate(0,170.5,23.5)"/><rect x="167" y="41" width="7" height="7" transform="rotate(0,170.5,44.5)"/><rect x="167" y="62" width="7" height="7" transform="rotate(0,170.5,65.5)"/><rect x="167" y="69" width="7" height="7" transform="rotate(0,170.5,72.5)"/><rect x="167" y="76" width="7" height="7" transform="rotate(0,170.5,79.5)"/><rect x="167" y="104" width="7" height="7" transform="rotate(0,170.5,107.5)"/><rect x="167" y="118" width="7" height="7" transform="rotate(0,170.5,121.5)"/><rect x="167" y="139" width="7" height="7" transform="rotate(0,170.5,142.5)"/><rect x="167" y="167" width="7" height="7" transform="rotate(0,170.5,170.5)"/><rect x="167" y="188" width="7" height="7" transform="rotate(0,170.5,191.5)"/><rect x="167" y="223" width="7" height="7" transform="rotate(0,170.5,226.5)"/><rect x="167" y="237" width="7" height="7" transform="rotate(0,170.5,240.5)"/><rect x="167" y="244" width="7" height="7" transform="rotate(0,170.5,247.5)"/><rect x="167" y="251" width="7" height="7" transform="rotate(0,170.5,254.5)"/><rect x="167" y="258" width="7" height="7" transform="rotate(0,170.5,261.5)"/><rect x="167" y="279" width="7" height="7" transform="rotate(0,170.5,282.5)"/><rect x="174" y="27" width="7" height="7" transform="rotate(0,177.5,30.5)"/><rect x="174" y="41" width="7" height="7" transform="rotate(0,177.5,44.5)"/><rect x="174" y="48" width="7" height="7" transform="rotate(0,177.5,51.5)"/><rect x="174" y="62" width="7" height="7" transform="rotate(0,177.5,65.5)"/><rect x="174" y="69" width="7" height="7" transform="rotate(0,177.5,72.5)"/><rect x="174" y="90" width="7" height="7" transform="rotate(0,177.5,93.5)"/><rect x="174" y="104" width="7" height="7" transform="rotate(0,177.5,107.5)"/><rect x="174" y="111" width="7" height="7" transform="rotate(0,177.5,114.5)"/><rect x="174" y="132" width="7" height="7" transform="rotate(0,177.5,135.5)"/><rect x="174" y="139" width="7" height="7" transform="rotate(0,177.5,142.5)"/><rect x="174" y="160" width="7" height="7" transform="rotate(0,177.5,163.5)"/><rect x="174" y="167" width="7" height="7" transform="rotate(0,177.5,170.5)"/><rect x="174" y="174" width="7" height="7" transform="rotate(0,177.5,177.5)"/><rect x="174" y="181" width="7" height="7" transform="rotate(0,177.5,184.5)"/><rect x="174" y="188" width="7" height="7" transform="rotate(0,177.5,191.5)"/><rect x="174" y="195" width="7" height="7" transform="rotate(0,177.5,198.5)"/><rect x="174" y="209" width="7" height="7" transform="rotate(0,177.5,212.5)"/><rect x="174" y="251" width="7" height="7" transform="rotate(0,177.5,254.5)"/><rect x="174" y="265" width="7" height="7" transform="rotate(0,177.5,268.5)"/><rect x="174" y="272" width="7" height="7" transform="rotate(0,177.5,275.5)"/><rect x="174" y="279" width="7" height="7" transform="rotate(0,177.5,282.5)"/><rect x="181" y="20" width="7" height="7" transform="rotate(0,184.5,23.5)"/><rect x="181" y="27" width="7" height="7" transform="rotate(0,184.5,30.5)"/><rect x="181" y="41" width="7" height="7" transform="rotate(0,184.5,44.5)"/><rect x="181" y="55" width="7" height="7" transform="rotate(0,184.5,58.5)"/><rect x="181" y="69" width="7" height="7" transform="rotate(0,184.5,72.5)"/><rect x="181" y="90" width="7" height="7" transform="rotate(0,184.5,93.5)"/><rect x="181" y="97" width="7" height="7" transform="rotate(0,184.5,100.5)"/><rect x="181" y="118" width="7" height="7" transform="rotate(0,184.5,121.5)"/><rect x="181" y="132" width="7" height="7" transform="rotate(0,184.5,135.5)"/><rect x="181" y="139" width="7" height="7" transform="rotate(0,184.5,142.5)"/><rect x="181" y="146" width="7" height="7" transform="rotate(0,184.5,149.5)"/><rect x="181" y="160" width="7" height="7" transform="rotate(0,184.5,163.5)"/><rect x="181" y="167" width="7" height="7" transform="rotate(0,184.5,170.5)"/><rect x="181" y="174" width="7" height="7" transform="rotate(0,184.5,177.5)"/><rect x="181" y="181" width="7" height="7" transform="rotate(0,184.5,184.5)"/><rect x="181" y="202" width="7" height="7" transform="rotate(0,184.5,205.5)"/><rect x="181" y="223" width="7" height="7" transform="rotate(0,184.5,226.5)"/><rect x="181" y="237" width="7" height="7" transform="rotate(0,184.5,240.5)"/><rect x="181" y="244" width="7" height="7" transform="rotate(0,184.5,247.5)"/><rect x="181" y="258" width="7" height="7" transform="rotate(0,184.5,261.5)"/><rect x="181" y="265" width="7" height="7" transform="rotate(0,184.5,268.5)"/><rect x="181" y="286" width="7" height="7" transform="rotate(0,184.5,289.5)"/><rect x="188" y="6" width="7" height="7" transform="rotate(0,191.5,9.5)"/><rect x="188" y="34" width="7" height="7" transform="rotate(0,191.5,37.5)"/><rect x="188" y="48" width="7" height="7" transform="rotate(0,191.5,51.5)"/><rect x="188" y="55" width="7" height="7" transform="rotate(0,191.5,58.5)"/><rect x="188" y="69" width="7" height="7" transform="rotate(0,191.5,72.5)"/><rect x="188" y="76" width="7" height="7" transform="rotate(0,191.5,79.5)"/><rect x="188" y="90" width="7" height="7" transform="rotate(0,191.5,93.5)"/><rect x="188" y="97" width="7" height="7" transform="rotate(0,191.5,100.5)"/><rect x="188" y="104" width="7" height="7" transform="rotate(0,191.5,107.5)"/><rect x="188" y="118" width="7" height="7" transform="rotate(0,191.5,121.5)"/><rect x="188" y="146" width="7" height="7" transform="rotate(0,191.5,149.5)"/><rect x="188" y="174" width="7" height="7" transform="rotate(0,191.5,177.5)"/><rect x="188" y="181" width="7" height="7" transform="rotate(0,191.5,184.5)"/><rect x="188" y="188" width="7" height="7" transform="rotate(0,191.5,191.5)"/><rect x="188" y="195" width="7" height="7" transform="rotate(0,191.5,198.5)"/><rect x="188" y="230" width="7" height="7" transform="rotate(0,191.5,233.5)"/><rect x="188" y="237" width="7" height="7" transform="rotate(0,191.5,240.5)"/><rect x="188" y="244" width="7" height="7" transform="rotate(0,191.5,247.5)"/><rect x="188" y="279" width="7" height="7" transform="rotate(0,191.5,282.5)"/><rect x="195" y="13" width="7" height="7" transform="rotate(0,198.5,16.5)"/><rect x="195" y="41" width="7" height="7" transform="rotate(0,198.5,44.5)"/><rect x="195" y="55" width="7" height="7" transform="rotate(0,198.5,58.5)"/><rect x="195" y="69" width="7" height="7" transform="rotate(0,198.5,72.5)"/><rect x="195" y="118" width="7" height="7" transform="rotate(0,198.5,121.5)"/><rect x="195" y="146" width="7" height="7" transform="rotate(0,198.5,149.5)"/><rect x="195" y="153" width="7" height="7" transform="rotate(0,198.5,156.5)"/><rect x="195" y="160" width="7" height="7" transform="rotate(0,198.5,163.5)"/><rect x="195" y="188" width="7" height="7" transform="rotate(0,198.5,191.5)"/><rect x="195" y="195" width="7" height="7" transform="rotate(0,198.5,198.5)"/><rect x="195" y="202" width="7" height="7" transform="rotate(0,198.5,205.5)"/><rect x="195" y="223" width="7" height="7" transform="rotate(0,198.5,226.5)"/><rect x="195" y="230" width="7" height="7" transform="rotate(0,198.5,233.5)"/><rect x="195" y="237" width="7" height="7" transform="rotate(0,198.5,240.5)"/><rect x="195" y="251" width="7" height="7" transform="rotate(0,198.5,254.5)"/><rect x="195" y="258" width="7" height="7" transform="rotate(0,198.5,261.5)"/><rect x="195" y="265" width="7" height="7" transform="rotate(0,198.5,268.5)"/><rect x="195" y="286" width="7" height="7" transform="rotate(0,198.5,289.5)"/><rect x="202" y="6" width="7" height="7" transform="rotate(0,205.5,9.5)"/><rect x="202" y="20" width="7" height="7" transform="rotate(0,205.5,23.5)"/><rect x="202" y="48" width="7" height="7" transform="rotate(0,205.5,51.5)"/><rect x="202" y="55" width="7" height="7" transform="rotate(0,205.5,58.5)"/><rect x="202" y="62" width="7" height="7" transform="rotate(0,205.5,65.5)"/><rect x="202" y="69" width="7" height="7" transform="rotate(0,205.5,72.5)"/><rect x="202" y="76" width="7" height="7" transform="rotate(0,205.5,79.5)"/><rect x="202" y="83" width="7" height="7" transform="rotate(0,205.5,86.5)"/><rect x="202" y="90" width="7" height="7" transform="rotate(0,205.5,93.5)"/><rect x="202" y="104" width="7" height="7" transform="rotate(0,205.5,107.5)"/><rect x="202" y="125" width="7" height="7" transform="rotate(0,205.5,128.5)"/><rect x="202" y="139" width="7" height="7" transform="rotate(0,205.5,142.5)"/><rect x="202" y="146" width="7" height="7" transform="rotate(0,205.5,149.5)"/><rect x="202" y="160" width="7" height="7" transform="rotate(0,205.5,163.5)"/><rect x="202" y="174" width="7" height="7" transform="rotate(0,205.5,177.5)"/><rect x="202" y="181" width="7" height="7" transform="rotate(0,205.5,184.5)"/><rect x="202" y="188" width="7" height="7" transform="rotate(0,205.5,191.5)"/><rect x="202" y="195" width="7" height="7" transform="rotate(0,205.5,198.5)"/><rect x="202" y="202" width="7" height="7" transform="rotate(0,205.5,205.5)"/><rect x="202" y="209" width="7" height="7" transform="rotate(0,205.5,212.5)"/><rect x="202" y="223" width="7" height="7" transform="rotate(0,205.5,226.5)"/><rect x="202" y="237" width="7" height="7" transform="rotate(0,205.5,240.5)"/><rect x="202" y="265" width="7" height="7" transform="rotate(0,205.5,268.5)"/><rect x="202" y="272" width="7" height="7" transform="rotate(0,205.5,275.5)"/><rect x="202" y="279" width="7" height="7" transform="rotate(0,205.5,282.5)"/><rect x="209" y="6" width="7" height="7" transform="rotate(0,212.5,9.5)"/><rect x="209" y="20" width="7" height="7" transform="rotate(0,212.5,23.5)"/><rect x="209" y="34" width="7" height="7" transform="rotate(0,212.5,37.5)"/><rect x="209" y="90" width="7" height="7" transform="rotate(0,212.5,93.5)"/><rect x="209" y="97" width="7" height="7" transform="rotate(0,212.5,100.5)"/><rect x="209" y="139" width="7" height="7" transform="rotate(0,212.5,142.5)"/><rect x="209" y="195" width="7" height="7" transform="rotate(0,212.5,198.5)"/><rect x="209" y="223" width="7" height="7" transform="rotate(0,212.5,226.5)"/><rect x="209" y="230" width="7" height="7" transform="rotate(0,212.5,233.5)"/><rect x="209" y="244" width="7" height="7" transform="rotate(0,212.5,247.5)"/><rect x="209" y="251" width="7" height="7" transform="rotate(0,212.5,254.5)"/><rect x="209" y="258" width="7" height="7" transform="rotate(0,212.5,261.5)"/><rect x="209" y="265" width="7" height="7" transform="rotate(0,212.5,268.5)"/><rect x="209" y="272" width="7" height="7" transform="rotate(0,212.5,275.5)"/><rect x="209" y="279" width="7" height="7" transform="rotate(0,212.5,282.5)"/><rect x="209" y="286" width="7" height="7" transform="rotate(0,212.5,289.5)"/><rect x="216" y="6" width="7" height="7" transform="rotate(0,219.5,9.5)"/><rect x="216" y="20" width="7" height="7" transform="rotate(0,219.5,23.5)"/><rect x="216" y="34" width="7" height="7" transform="rotate(0,219.5,37.5)"/><rect x="216" y="48" width="7" height="7" transform="rotate(0,219.5,51.5)"/><rect x="216" y="62" width="7" height="7" transform="rotate(0,219.5,65.5)"/><rect x="216" y="69" width="7" height="7" transform="rotate(0,219.5,72.5)"/><rect x="216" y="104" width="7" height="7" transform="rotate(0,219.5,107.5)"/><rect x="216" y="118" width="7" height="7" transform="rotate(0,219.5,121.5)"/><rect x="216" y="132" width="7" height="7" transform="rotate(0,219.5,135.5)"/><rect x="216" y="153" width="7" height="7" transform="rotate(0,219.5,156.5)"/><rect x="216" y="167" width="7" height="7" transform="rotate(0,219.5,170.5)"/><rect x="216" y="174" width="7" height="7" transform="rotate(0,219.5,177.5)"/><rect x="216" y="181" width="7" height="7" transform="rotate(0,219.5,184.5)"/><rect x="216" y="188" width="7" height="7" transform="rotate(0,219.5,191.5)"/><rect x="216" y="195" width="7" height="7" transform="rotate(0,219.5,198.5)"/><rect x="216" y="202" width="7" height="7" transform="rotate(0,219.5,205.5)"/><rect x="216" y="230" width="7" height="7" transform="rotate(0,219.5,233.5)"/><rect x="216" y="237" width="7" height="7" transform="rotate(0,219.5,240.5)"/><rect x="216" y="244" width="7" height="7" transform="rotate(0,219.5,247.5)"/><rect x="216" y="258" width="7" height="7" transform="rotate(0,219.5,261.5)"/><rect x="223" y="6" width="7" height="7" transform="rotate(0,226.5,9.5)"/><rect x="223" y="20" width="7" height="7" transform="rotate(0,226.5,23.5)"/><rect x="223" y="27" width="7" height="7" transform="rotate(0,226.5,30.5)"/><rect x="223" y="34" width="7" height="7" transform="rotate(0,226.5,37.5)"/><rect x="223" y="41" width="7" height="7" transform="rotate(0,226.5,44.5)"/><rect x="223" y="55" width="7" height="7" transform="rotate(0,226.5,58.5)"/><rect x="223" y="62" width="7" height="7" transform="rotate(0,226.5,65.5)"/><rect x="223" y="76" width="7" height="7" transform="rotate(0,226.5,79.5)"/><rect x="223" y="83" width="7" height="7" transform="rotate(0,226.5,86.5)"/><rect x="223" y="90" width="7" height="7" transform="rotate(0,226.5,93.5)"/><rect x="223" y="104" width="7" height="7" transform="rotate(0,226.5,107.5)"/><rect x="223" y="118" width="7" height="7" transform="rotate(0,226.5,121.5)"/><rect x="223" y="125" width="7" height="7" transform="rotate(0,226.5,128.5)"/><rect x="223" y="153" width="7" height="7" transform="rotate(0,226.5,156.5)"/><rect x="223" y="167" width="7" height="7" transform="rotate(0,226.5,170.5)"/><rect x="223" y="195" width="7" height="7" transform="rotate(0,226.5,198.5)"/><rect x="223" y="230" width="7" height="7" transform="rotate(0,226.5,233.5)"/><rect x="223" y="237" width="7" height="7" transform="rotate(0,226.5,240.5)"/><rect x="223" y="244" width="7" height="7" transform="rotate(0,226.5,247.5)"/><rect x="223" y="251" width="7" height="7" transform="rotate(0,226.5,254.5)"/><rect x="223" y="265" width="7" height="7" transform="rotate(0,226.5,268.5)"/><rect x="223" y="286" width="7" height="7" transform="rotate(0,226.5,289.5)"/><rect x="230" y="6" width="7" height="7" transform="rotate(0,233.5,9.5)"/><rect x="230" y="20" width="7" height="7" transform="rotate(0,233.5,23.5)"/><rect x="230" y="48" width="7" height="7" transform="rotate(0,233.5,51.5)"/><rect x="230" y="62" width="7" height="7" transform="rotate(0,233.5,65.5)"/><rect x="230" y="69" width="7" height="7" transform="rotate(0,233.5,72.5)"/><rect x="230" y="90" width="7" height="7" transform="rotate(0,233.5,93.5)"/><rect x="230" y="97" width="7" height="7" transform="rotate(0,233.5,100.5)"/><rect x="230" y="118" width="7" height="7" transform="rotate(0,233.5,121.5)"/><rect x="230" y="125" width="7" height="7" transform="rotate(0,233.5,128.5)"/><rect x="230" y="139" width="7" height="7" transform="rotate(0,233.5,142.5)"/><rect x="230" y="153" width="7" height="7" transform="rotate(0,233.5,156.5)"/><rect x="230" y="167" width="7" height="7" transform="rotate(0,233.5,170.5)"/><rect x="230" y="181" width="7" height="7" transform="rotate(0,233.5,184.5)"/><rect x="230" y="195" width="7" height="7" transform="rotate(0,233.5,198.5)"/><rect x="230" y="202" width="7" height="7" transform="rotate(0,233.5,205.5)"/><rect x="230" y="209" width="7" height="7" transform="rotate(0,233.5,212.5)"/><rect x="230" y="216" width="7" height="7" transform="rotate(0,233.5,219.5)"/><rect x="230" y="230" width="7" height="7" transform="rotate(0,233.5,233.5)"/><rect x="230" y="237" width="7" height="7" transform="rotate(0,233.5,240.5)"/><rect x="230" y="244" width="7" height="7" transform="rotate(0,233.5,247.5)"/><rect x="230" y="251" width="7" height="7" transform="rotate(0,233.5,254.5)"/><rect x="230" y="258" width="7" height="7" transform="rotate(0,233.5,261.5)"/><rect x="230" y="272" width="7" height="7" transform="rotate(0,233.5,275.5)"/><rect x="230" y="279" width="7" height="7" transform="rotate(0,233.5,282.5)"/><rect x="237" y="62" width="7" height="7" transform="rotate(0,240.5,65.5)"/><rect x="237" y="83" width="7" height="7" transform="rotate(0,240.5,86.5)"/><rect x="237" y="104" width="7" height="7" transform="rotate(0,240.5,107.5)"/><rect x="237" y="111" width="7" height="7" transform="rotate(0,240.5,114.5)"/><rect x="237" y="118" width="7" height="7" transform="rotate(0,240.5,121.5)"/><rect x="237" y="125" width="7" height="7" transform="rotate(0,240.5,128.5)"/><rect x="237" y="139" width="7" height="7" transform="rotate(0,240.5,142.5)"/><rect x="237" y="153" width="7" height="7" transform="rotate(0,240.5,156.5)"/><rect x="237" y="167" width="7" height="7" transform="rotate(0,240.5,170.5)"/><rect x="237" y="174" width="7" height="7" transform="rotate(0,240.5,177.5)"/><rect x="237" y="188" width="7" height="7" transform="rotate(0,240.5,191.5)"/><rect x="237" y="209" width="7" height="7" transform="rotate(0,240.5,212.5)"/><rect x="237" y="230" width="7" height="7" transform="rotate(0,240.5,233.5)"/><rect x="237" y="258" width="7" height="7" transform="rotate(0,240.5,261.5)"/><rect x="237" y="265" width="7" height="7" transform="rotate(0,240.5,268.5)"/><rect x="237" y="272" width="7" height="7" transform="rotate(0,240.5,275.5)"/><rect x="237" y="286" width="7" height="7" transform="rotate(0,240.5,289.5)"/><rect x="244" y="62" width="7" height="7" transform="rotate(0,247.5,65.5)"/><rect x="244" y="69" width="7" height="7" transform="rotate(0,247.5,72.5)"/><rect x="244" y="76" width="7" height="7" transform="rotate(0,247.5,79.5)"/><rect x="244" y="97" width="7" height="7" transform="rotate(0,247.5,100.5)"/><rect x="244" y="104" width="7" height="7" transform="rotate(0,247.5,107.5)"/><rect x="244" y="111" width="7" height="7" transform="rotate(0,247.5,114.5)"/><rect x="244" y="118" width="7" height="7" transform="rotate(0,247.5,121.5)"/><rect x="244" y="132" width="7" height="7" transform="rotate(0,247.5,135.5)"/><rect x="244" y="153" width="7" height="7" transform="rotate(0,247.5,156.5)"/><rect x="244" y="174" width="7" height="7" transform="rotate(0,247.5,177.5)"/><rect x="244" y="195" width="7" height="7" transform="rotate(0,247.5,198.5)"/><rect x="244" y="209" width="7" height="7" transform="rotate(0,247.5,212.5)"/><rect x="244" y="223" width="7" height="7" transform="rotate(0,247.5,226.5)"/><rect x="244" y="230" width="7" height="7" transform="rotate(0,247.5,233.5)"/><rect x="244" y="244" width="7" height="7" transform="rotate(0,247.5,247.5)"/><rect x="244" y="258" width="7" height="7" transform="rotate(0,247.5,261.5)"/><rect x="244" y="265" width="7" height="7" transform="rotate(0,247.5,268.5)"/><rect x="244" y="272" width="7" height="7" transform="rotate(0,247.5,275.5)"/><rect x="251" y="62" width="7" height="7" transform="rotate(0,254.5,65.5)"/><rect x="251" y="69" width="7" height="7" transform="rotate(0,254.5,72.5)"/><rect x="251" y="76" width="7" height="7" transform="rotate(0,254.5,79.5)"/><rect x="251" y="83" width="7" height="7" transform="rotate(0,254.5,86.5)"/><rect x="251" y="90" width="7" height="7" transform="rotate(0,254.5,93.5)"/><rect x="251" y="97" width="7" height="7" transform="rotate(0,254.5,100.5)"/><rect x="251" y="104" width="7" height="7" transform="rotate(0,254.5,107.5)"/><rect x="251" y="118" width="7" height="7" transform="rotate(0,254.5,121.5)"/><rect x="251" y="125" width="7" height="7" transform="rotate(0,254.5,128.5)"/><rect x="251" y="132" width="7" height="7" transform="rotate(0,254.5,135.5)"/><rect x="251" y="139" width="7" height="7" transform="rotate(0,254.5,142.5)"/><rect x="251" y="160" width="7" height="7" transform="rotate(0,254.5,163.5)"/><rect x="251" y="174" width="7" height="7" transform="rotate(0,254.5,177.5)"/><rect x="251" y="188" width="7" height="7" transform="rotate(0,254.5,191.5)"/><rect x="251" y="209" width="7" height="7" transform="rotate(0,254.5,212.5)"/><rect x="251" y="216" width="7" height="7" transform="rotate(0,254.5,219.5)"/><rect x="251" y="223" width="7" height="7" transform="rotate(0,254.5,226.5)"/><rect x="251" y="230" width="7" height="7" transform="rotate(0,254.5,233.5)"/><rect x="251" y="258" width="7" height="7" transform="rotate(0,254.5,261.5)"/><rect x="251" y="279" width="7" height="7" transform="rotate(0,254.5,282.5)"/><rect x="251" y="286" width="7" height="7" transform="rotate(0,254.5,289.5)"/><rect x="258" y="62" width="7" height="7" transform="rotate(0,261.5,65.5)"/><rect x="258" y="125" width="7" height="7" transform="rotate(0,261.5,128.5)"/><rect x="258" y="160" width="7" height="7" transform="rotate(0,261.5,163.5)"/><rect x="258" y="174" width="7" height="7" transform="rotate(0,261.5,177.5)"/><rect x="258" y="195" width="7" height="7" transform="rotate(0,261.5,198.5)"/><rect x="258" y="230" width="7" height="7" transform="rotate(0,261.5,233.5)"/><rect x="258" y="237" width="7" height="7" transform="rotate(0,261.5,240.5)"/><rect x="258" y="244" width="7" height="7" transform="rotate(0,261.5,247.5)"/><rect x="258" y="251" width="7" height="7" transform="rotate(0,261.5,254.5)"/><rect x="258" y="258" width="7" height="7" transform="rotate(0,261.5,261.5)"/><rect x="258" y="265" width="7" height="7" transform="rotate(0,261.5,268.5)"/><rect x="258" y="272" width="7" height="7" transform="rotate(0,261.5,275.5)"/><rect x="258" y="286" width="7" height="7" transform="rotate(0,261.5,289.5)"/><rect x="265" y="62" width="7" height="7" transform="rotate(0,268.5,65.5)"/><rect x="265" y="76" width="7" height="7" transform="rotate(0,268.5,79.5)"/><rect x="265" y="83" width="7" height="7" transform="rotate(0,268.5,86.5)"/><rect x="265" y="111" width="7" height="7" transform="rotate(0,268.5,114.5)"/><rect x="265" y="132" width="7" height="7" transform="rotate(0,268.5,135.5)"/><rect x="265" y="139" width="7" height="7" transform="rotate(0,268.5,142.5)"/><rect x="265" y="160" width="7" height="7" transform="rotate(0,268.5,163.5)"/><rect x="265" y="167" width="7" height="7" transform="rotate(0,268.5,170.5)"/><rect x="265" y="174" width="7" height="7" transform="rotate(0,268.5,177.5)"/><rect x="265" y="188" width="7" height="7" transform="rotate(0,268.5,191.5)"/><rect x="265" y="202" width="7" height="7" transform="rotate(0,268.5,205.5)"/><rect x="265" y="216" width="7" height="7" transform="rotate(0,268.5,219.5)"/><rect x="265" y="230" width="7" height="7" transform="rotate(0,268.5,233.5)"/><rect x="265" y="237" width="7" height="7" transform="rotate(0,268.5,240.5)"/><rect x="265" y="251" width="7" height="7" transform="rotate(0,268.5,254.5)"/><rect x="265" y="279" width="7" height="7" transform="rotate(0,268.5,282.5)"/><rect x="272" y="62" width="7" height="7" transform="rotate(0,275.5,65.5)"/><rect x="272" y="90" width="7" height="7" transform="rotate(0,275.5,93.5)"/><rect x="272" y="97" width="7" height="7" transform="rotate(0,275.5,100.5)"/><rect x="272" y="125" width="7" height="7" transform="rotate(0,275.5,128.5)"/><rect x="272" y="146" width="7" height="7" transform="rotate(0,275.5,149.5)"/><rect x="272" y="174" width="7" height="7" transform="rotate(0,275.5,177.5)"/><rect x="272" y="188" width="7" height="7" transform="rotate(0,275.5,191.5)"/><rect x="272" y="195" width="7" height="7" transform="rotate(0,275.5,198.5)"/><rect x="272" y="202" width="7" height="7" transform="rotate(0,275.5,205.5)"/><rect x="272" y="209" width="7" height="7" transform="rotate(0,275.5,212.5)"/><rect x="272" y="216" width="7" height="7" transform="rotate(0,275.5,219.5)"/><rect x="272" y="237" width="7" height="7" transform="rotate(0,275.5,240.5)"/><rect x="272" y="244" width="7" height="7" transform="rotate(0,275.5,247.5)"/><rect x="272" y="251" width="7" height="7" transform="rotate(0,275.5,254.5)"/><rect x="272" y="258" width="7" height="7" transform="rotate(0,275.5,261.5)"/><rect x="272" y="272" width="7" height="7" transform="rotate(0,275.5,275.5)"/><rect x="279" y="62" width="7" height="7" transform="rotate(0,282.5,65.5)"/><rect x="279" y="69" width="7" height="7" transform="rotate(0,282.5,72.5)"/><rect x="279" y="76" width="7" height="7" transform="rotate(0,282.5,79.5)"/><rect x="279" y="90" width="7" height="7" transform="rotate(0,282.5,93.5)"/><rect x="279" y="118" width="7" height="7" transform="rotate(0,282.5,121.5)"/><rect x="279" y="132" width="7" height="7" transform="rotate(0,282.5,135.5)"/><rect x="279" y="146" width="7" height="7" transform="rotate(0,282.5,149.5)"/><rect x="279" y="160" width="7" height="7" transform="rotate(0,282.5,163.5)"/><rect x="279" y="188" width="7" height="7" transform="rotate(0,282.5,191.5)"/><rect x="279" y="216" width="7" height="7" transform="rotate(0,282.5,219.5)"/><rect x="279" y="230" width="7" height="7" transform="rotate(0,282.5,233.5)"/><rect x="279" y="258" width="7" height="7" transform="rotate(0,282.5,261.5)"/><rect x="279" y="279" width="7" height="7" transform="rotate(0,282.5,282.5)"/><rect x="286" y="97" width="7" height="7" transform="rotate(0,289.5,100.5)"/><rect x="286" y="104" width="7" height="7" transform="rotate(0,289.5,107.5)"/><rect x="286" y="111" width="7" height="7" transform="rotate(0,289.5,114.5)"/><rect x="286" y="118" width="7" height="7" transform="rotate(0,289.5,121.5)"/><rect x="286" y="125" width="7" height="7" transform="rotate(0,289.5,128.5)"/><rect x="286" y="132" width="7" height="7" transform="rotate(0,289.5,135.5)"/><rect x="286" y="146" width="7" height="7" transform="rotate(0,289.5,149.5)"/><rect x="286" y="153" width="7" height="7" transform="rotate(0,289.5,156.5)"/><rect x="286" y="160" width="7" height="7" transform="rotate(0,289.5,163.5)"/><rect x="286" y="167" width="7" height="7" transform="rotate(0,289.5,170.5)"/><rect x="286" y="174" width="7" height="7" transform="rotate(0,289.5,177.5)"/><rect x="286" y="181" width="7" height="7" transform="rotate(0,289.5,184.5)"/><rect x="286" y="188" width="7" height="7" transform="rotate(0,289.5,191.5)"/><rect x="286" y="195" width="7" height="7" transform="rotate(0,289.5,198.5)"/><rect x="286" y="202" width="7" height="7" transform="rotate(0,289.5,205.5)"/><rect x="286" y="209" width="7" height="7" transform="rotate(0,289.5,212.5)"/><rect x="286" y="223" width="7" height="7" transform="rotate(0,289.5,226.5)"/><rect x="286" y="244" width="7" height="7" transform="rotate(0,289.5,247.5)"/><rect x="286" y="251" width="7" height="7" transform="rotate(0,289.5,254.5)"/><rect x="286" y="258" width="7" height="7" transform="rotate(0,289.5,261.5)"/><rect x="286" y="265" width="7" height="7" transform="rotate(0,289.5,268.5)"/><rect x="286" y="272" width="7" height="7" transform="rotate(0,289.5,275.5)"/><path clip-rule="evenodd" d="M 6 6v 49h 49v -49zM 13 13h 35v 35h -35z" transform="rotate(0,30.5,30.5)"/><rect x="20" y="20" width="7" height="7" transform="rotate(0,23.5,23.5)"/><rect x="20" y="27" width="7" height="7" transform="rotate(0,23.5,30.5)"/><rect x="20" y="34" width="7" height="7" transform="rotate(0,23.5,37.5)"/><rect x="27" y="20" width="7" height="7" transform="rotate(0,30.5,23.5)"/><rect x="27" y="27" width="7" height="7" transform="rotate(0,30.5,30.5)"/><rect x="27" y="34" width="7" height="7" transform="rotate(0,30.5,37.5)"/><rect x="34" y="20" width="7" height="7" transform="rotate(0,37.5,23.5)"/><rect x="34" y="27" width="7" height="7" transform="rotate(0,37.5,30.5)"/><rect x="34" y="34" width="7" height="7" transform="rotate(0,37.5,37.5)"/><path clip-rule="evenodd" d="M 244 6v 49h 49v -49zM 251 13h 35v 35h -35z" transform="rotate(90,268.5,30.5)"/><rect x="258" y="20" width="7" height="7" transform="rotate(0,261.5,23.5)"/><rect x="258" y="27" width="7" height="7" transform="rotate(0,261.5,30.5)"/><rect x="258" y="34" width="7" height="7" transform="rotate(0,261.5,37.5)"/><rect x="265" y="20" width="7" height="7" transform="rotate(0,268.5,23.5)"/><rect x="265" y="27" width="7" height="7" transform="rotate(0,268.5,30.5)"/><rect x="265" y="34" width="7" height="7" transform="rotate(0,268.5,37.5)"/><rect x="272" y="20" width="7" height="7" transform="rotate(0,275.5,23.5)"/><rect x="272" y="27" width="7" height="7" transform="rotate(0,275.5,30.5)"/><rect x="272" y="34" width="7" height="7" transform="rotate(0,275.5,37.5)"/><path clip-rule="evenodd" d="M 6 244v 49h 49v -49zM 13 251h 35v 35h -35z" transform="rotate(-90,30.5,268.5)"/><rect x="20" y="258" width="7" height="7" transform="rotate(0,23.5,261.5)"/><rect x="20" y="265" width="7" height="7" transform="rotate(0,23.5,268.5)"/><rect x="20" y="272" width="7" height="7" transform="rotate(0,23.5,275.5)"/><rect x="27" y="258" width="7" height="7" transform="rotate(0,30.5,261.5)"/><rect x="27" y="265" width="7" height="7" transform="rotate(0,30.5,268.5)"/><rect x="27" y="272" width="7" height="7" transform="rotate(0,30.5,275.5)"/><rect x="34" y="258" width="7" height="7" transform="rotate(0,37.5,261.5)"/><rect x="34" y="265" width="7" height="7" transform="rotate(0,37.5,268.5)"/><rect x="34" y="272" width="7" height="7" transform="rotate(0,37.5,275.5)"/></clipPath></defs><rect x="0" y="0" height="300" width="300" clip-path="url('#clip-path-background-color')" fill="#fff"/><rect x="0" y="0" height="300" width="300" clip-path="url('#clip-path-dot-color')" fill="#000000"/></svg>